<svg xmlns="http://www.w3.org/2000/svg" xmlns:xlink="http://www.w3.org/1999/xlink" width="1080" zoomAndPan="magnify" viewBox="0 0 810 809.999993" height="1080" preserveAspectRatio="xMidYMid meet" version="1.0"><defs><g/><clipPath id="5287240a98"><rect x="0" width="683" y="0" height="784"/></clipPath></defs><g transform="matrix(1, 0, 0, 1, 58, 26)"><g clip-path="url(#5287240a98)"><g fill="#000000" fill-opacity="1"><g transform="translate(21.857626, 709.988505)"><g><path d="M 658.847656 -590.714844 C 658.425781 -578.03125 655.898438 -565.59375 651.273438 -553.398438 C 646.53125 -540.886719 639.453125 -529.5 630.046875 -519.238281 L 615.527344 -532.546875 L 630.484375 -519.730469 L 422.503906 -277.089844 L 407.550781 -289.90625 L 427.246094 -289.90625 L 427.246094 -74.050781 C 427.246094 -59.746094 424.503906 -46.34375 419.023438 -33.84375 C 413.652344 -21.601562 406.417969 -10.929688 397.320312 -1.828125 L 383.394531 -15.757812 L 397.625 -2.140625 C 378.339844 18.019531 354.164062 28.097656 325.097656 28.097656 C 295.675781 28.097656 271.324219 18.019531 252.042969 -2.140625 L 266.273438 -15.757812 L 252.347656 -1.828125 C 243.175781 -11 235.992188 -21.761719 230.792969 -34.109375 C 225.5625 -46.53125 222.945312 -59.847656 222.945312 -74.050781 L 222.945312 -288.859375 L 242.640625 -288.859375 L 227.644531 -276.089844 L 20.191406 -519.78125 C 1.304688 -541.183594 -8.140625 -565.046875 -8.140625 -591.371094 C -8.140625 -604.011719 -5.761719 -616.390625 -1 -628.507812 C 3.851562 -640.859375 11.449219 -652.203125 21.785156 -662.542969 C 31.542969 -672.726562 42.9375 -680.535156 55.972656 -685.964844 C 68.699219 -691.269531 81.691406 -694.132812 94.949219 -694.5625 L 95.269531 -694.570312 L 95.585938 -694.570312 C 108.84375 -694.570312 121.71875 -691.828125 134.21875 -686.347656 C 147.160156 -680.671875 158.140625 -672.195312 167.160156 -660.917969 L 341.0625 -441.3125 L 325.621094 -429.085938 L 310.164062 -441.289062 L 483.476562 -660.820312 C 492.523438 -672.128906 503.402344 -680.621094 516.117188 -686.296875 C 528.476562 -691.8125 541.480469 -694.570312 555.132812 -694.570312 L 555.449219 -694.570312 L 555.765625 -694.5625 C 569.027344 -694.132812 582.019531 -691.269531 594.742188 -685.964844 C 607.644531 -680.589844 619.214844 -672.78125 629.457031 -662.542969 C 639.445312 -652.554688 646.863281 -641.382812 651.71875 -629.03125 C 656.476562 -616.914062 658.859375 -604.359375 658.859375 -591.371094 L 658.859375 -591.042969 Z M 619.480469 -592.027344 L 639.164062 -591.371094 L 619.46875 -591.371094 C 619.46875 -599.386719 617.996094 -607.140625 615.054688 -614.628906 C 612.203125 -621.886719 607.71875 -628.574219 601.601562 -634.691406 C 595.035156 -641.257812 587.699219 -646.230469 579.59375 -649.605469 C 571.3125 -653.058594 562.945312 -654.917969 554.496094 -655.191406 L 555.132812 -674.875 L 555.132812 -655.179688 C 547.074219 -655.179688 539.421875 -653.5625 532.175781 -650.328125 C 525.28125 -647.25 519.351562 -642.613281 514.394531 -636.414062 L 325.644531 -397.332031 L 136.402344 -636.3125 C 131.417969 -642.542969 125.417969 -647.195312 118.398438 -650.273438 C 110.941406 -653.546875 103.335938 -655.179688 95.585938 -655.179688 L 95.585938 -674.875 L 96.21875 -655.191406 C 87.773438 -654.917969 79.40625 -653.058594 71.125 -649.605469 C 63.152344 -646.285156 55.992188 -641.3125 49.640625 -634.691406 C 43.171875 -628.222656 38.511719 -621.359375 35.664062 -614.105469 C 32.71875 -606.617188 31.25 -599.039062 31.25 -591.371094 C 31.25 -574.976562 37.5625 -559.625 50.183594 -545.316406 L 262.335938 -296.105469 L 262.335938 -74.050781 C 262.335938 -65.148438 263.921875 -56.929688 267.09375 -49.394531 C 270.296875 -41.789062 274.667969 -35.214844 280.199219 -29.683594 L 280.355469 -29.527344 L 280.507812 -29.371094 C 292.035156 -17.316406 306.898438 -11.292969 325.097656 -11.292969 C 342.945312 -11.292969 357.632812 -17.316406 369.160156 -29.371094 L 369.464844 -29.683594 C 375.070312 -35.289062 379.566406 -41.949219 382.949219 -49.664062 C 386.222656 -57.121094 387.855469 -65.25 387.855469 -74.050781 L 387.855469 -297.195312 L 600.789062 -545.613281 L 601.011719 -545.855469 C 607.011719 -552.402344 611.488281 -559.570312 614.445312 -567.367188 C 617.523438 -575.484375 619.203125 -583.703125 619.480469 -592.027344 Z M 619.480469 -592.027344 "/></g></g></g></g></g></svg>